<mxfile host="app.diagrams.net" agent="Mozilla/5.0 (Macintosh; Intel Mac OS X 10_15_7) AppleWebKit/537.36 (KHTML, like Gecko) Chrome/130.0.0.0 Safari/537.36 OPR/115.0.0.0" version="25.0.3">
  <diagram name="Page-1" id="K9l52iJG-UOg3sCqxvqn">
    <mxGraphModel dx="1260" dy="836" grid="1" gridSize="10" guides="1" tooltips="1" connect="1" arrows="1" fold="1" page="1" pageScale="1" pageWidth="1169" pageHeight="827" math="0" shadow="0">
      <root>
        <mxCell id="0" />
        <mxCell id="1" parent="0" />
        <mxCell id="C_nmWoKS890w6f45vqdA-1" value="Deposit Product" style="shape=module;align=left;spacingLeft=20;align=center;verticalAlign=top;whiteSpace=wrap;html=1;fontFamily=Anonymous Pro;fontSource=https%3A%2F%2Ffonts.googleapis.com%2Fcss%3Ffamily%3DAnonymous%2BPro;" parent="1" vertex="1">
          <mxGeometry x="260" y="300" width="100" height="50" as="geometry" />
        </mxCell>
        <mxCell id="C_nmWoKS890w6f45vqdA-2" value="Cerdiwen&lt;div&gt;&amp;lt;&amp;lt;cassandra&amp;gt;&amp;gt;&lt;/div&gt;" style="shape=module;align=left;spacingLeft=20;align=center;verticalAlign=top;whiteSpace=wrap;html=1;fontFamily=Anonymous Pro;fontSource=https%3A%2F%2Ffonts.googleapis.com%2Fcss%3Ffamily%3DAnonymous%2BPro;" parent="1" vertex="1">
          <mxGeometry x="400" y="380" width="150" height="50" as="geometry" />
        </mxCell>
        <mxCell id="C_nmWoKS890w6f45vqdA-3" value="Deposit Account" style="shape=module;align=left;spacingLeft=20;align=center;verticalAlign=top;whiteSpace=wrap;html=1;fontFamily=Anonymous Pro;fontSource=https%3A%2F%2Ffonts.googleapis.com%2Fcss%3Ffamily%3DAnonymous%2BPro;" parent="1" vertex="1">
          <mxGeometry x="250" y="440" width="100" height="50" as="geometry" />
        </mxCell>
        <mxCell id="C_nmWoKS890w6f45vqdA-4" value="Transaction" style="shape=module;align=left;spacingLeft=20;align=center;verticalAlign=top;whiteSpace=wrap;html=1;fontFamily=Anonymous Pro;fontSource=https%3A%2F%2Ffonts.googleapis.com%2Fcss%3Ffamily%3DAnonymous%2BPro;" parent="1" vertex="1">
          <mxGeometry x="500" y="470" width="130" height="50" as="geometry" />
        </mxCell>
        <mxCell id="C_nmWoKS890w6f45vqdA-5" value="Audit Log" style="shape=module;align=left;spacingLeft=20;align=center;verticalAlign=top;whiteSpace=wrap;html=1;fontFamily=Anonymous Pro;fontSource=https%3A%2F%2Ffonts.googleapis.com%2Fcss%3Ffamily%3DAnonymous%2BPro;" parent="1" vertex="1">
          <mxGeometry x="510" y="210" width="100" height="50" as="geometry" />
        </mxCell>
        <mxCell id="1oHQWLkUvS5H4WYnGpmm-1" value="BNPL Product" style="shape=module;align=left;spacingLeft=20;align=center;verticalAlign=top;whiteSpace=wrap;html=1;fontFamily=Anonymous Pro;fontSource=https%3A%2F%2Ffonts.googleapis.com%2Fcss%3Ffamily%3DAnonymous%2BPro;" vertex="1" parent="1">
          <mxGeometry x="120" y="360" width="100" height="50" as="geometry" />
        </mxCell>
        <mxCell id="1oHQWLkUvS5H4WYnGpmm-2" value="Loan Product" style="shape=module;align=left;spacingLeft=20;align=center;verticalAlign=top;whiteSpace=wrap;html=1;fontFamily=Anonymous Pro;fontSource=https%3A%2F%2Ffonts.googleapis.com%2Fcss%3Ffamily%3DAnonymous%2BPro;" vertex="1" parent="1">
          <mxGeometry x="340" y="190" width="100" height="50" as="geometry" />
        </mxCell>
        <mxCell id="1oHQWLkUvS5H4WYnGpmm-3" value="Deposit Reporting" style="shape=module;align=left;spacingLeft=20;align=center;verticalAlign=top;whiteSpace=wrap;html=1;fontFamily=Anonymous Pro;fontSource=https%3A%2F%2Ffonts.googleapis.com%2Fcss%3Ffamily%3DAnonymous%2BPro;" vertex="1" parent="1">
          <mxGeometry x="700" y="310" width="100" height="50" as="geometry" />
        </mxCell>
        <mxCell id="1oHQWLkUvS5H4WYnGpmm-4" value="Ledger" style="shape=module;align=left;spacingLeft=20;align=center;verticalAlign=top;whiteSpace=wrap;html=1;fontFamily=Anonymous Pro;fontSource=https%3A%2F%2Ffonts.googleapis.com%2Fcss%3Ffamily%3DAnonymous%2BPro;" vertex="1" parent="1">
          <mxGeometry x="130" y="120" width="100" height="50" as="geometry" />
        </mxCell>
        <mxCell id="1oHQWLkUvS5H4WYnGpmm-5" value="Payment Holiday" style="shape=module;align=left;spacingLeft=20;align=center;verticalAlign=top;whiteSpace=wrap;html=1;fontFamily=Anonymous Pro;fontSource=https%3A%2F%2Ffonts.googleapis.com%2Fcss%3Ffamily%3DAnonymous%2BPro;" vertex="1" parent="1">
          <mxGeometry x="90" y="550" width="100" height="50" as="geometry" />
        </mxCell>
        <mxCell id="1oHQWLkUvS5H4WYnGpmm-6" value="Collection" style="shape=module;align=left;spacingLeft=20;align=center;verticalAlign=top;whiteSpace=wrap;html=1;fontFamily=Anonymous Pro;fontSource=https%3A%2F%2Ffonts.googleapis.com%2Fcss%3Ffamily%3DAnonymous%2BPro;" vertex="1" parent="1">
          <mxGeometry x="535" y="580" width="100" height="50" as="geometry" />
        </mxCell>
        <mxCell id="1oHQWLkUvS5H4WYnGpmm-7" value="External Credit Report" style="shape=module;align=left;spacingLeft=20;align=center;verticalAlign=top;whiteSpace=wrap;html=1;fontFamily=Anonymous Pro;fontSource=https%3A%2F%2Ffonts.googleapis.com%2Fcss%3Ffamily%3DAnonymous%2BPro;" vertex="1" parent="1">
          <mxGeometry x="670" y="380" width="100" height="50" as="geometry" />
        </mxCell>
        <mxCell id="1oHQWLkUvS5H4WYnGpmm-8" value="Loan Reporting" style="shape=module;align=left;spacingLeft=20;align=center;verticalAlign=top;whiteSpace=wrap;html=1;fontFamily=Anonymous Pro;fontSource=https%3A%2F%2Ffonts.googleapis.com%2Fcss%3Ffamily%3DAnonymous%2BPro;" vertex="1" parent="1">
          <mxGeometry x="350" y="570" width="100" height="50" as="geometry" />
        </mxCell>
        <mxCell id="1oHQWLkUvS5H4WYnGpmm-9" value="Tax Reporting" style="shape=module;align=left;spacingLeft=20;align=center;verticalAlign=top;whiteSpace=wrap;html=1;fontFamily=Anonymous Pro;fontSource=https%3A%2F%2Ffonts.googleapis.com%2Fcss%3Ffamily%3DAnonymous%2BPro;" vertex="1" parent="1">
          <mxGeometry x="770" y="140" width="100" height="50" as="geometry" />
        </mxCell>
        <mxCell id="1oHQWLkUvS5H4WYnGpmm-10" value="Customer" style="shape=module;align=left;spacingLeft=20;align=center;verticalAlign=top;whiteSpace=wrap;html=1;fontFamily=Anonymous Pro;fontSource=https%3A%2F%2Ffonts.googleapis.com%2Fcss%3Ffamily%3DAnonymous%2BPro;" vertex="1" parent="1">
          <mxGeometry x="400" y="440" width="100" height="50" as="geometry" />
        </mxCell>
        <mxCell id="1oHQWLkUvS5H4WYnGpmm-11" value="User" style="shape=module;align=left;spacingLeft=20;align=center;verticalAlign=top;whiteSpace=wrap;html=1;fontFamily=Anonymous Pro;fontSource=https%3A%2F%2Ffonts.googleapis.com%2Fcss%3Ffamily%3DAnonymous%2BPro;" vertex="1" parent="1">
          <mxGeometry x="420" y="630" width="100" height="50" as="geometry" />
        </mxCell>
        <mxCell id="1oHQWLkUvS5H4WYnGpmm-12" value="MFA" style="shape=module;align=left;spacingLeft=20;align=center;verticalAlign=top;whiteSpace=wrap;html=1;fontFamily=Anonymous Pro;fontSource=https%3A%2F%2Ffonts.googleapis.com%2Fcss%3Ffamily%3DAnonymous%2BPro;" vertex="1" parent="1">
          <mxGeometry x="550" y="300" width="100" height="50" as="geometry" />
        </mxCell>
      </root>
    </mxGraphModel>
  </diagram>
</mxfile>
